<?xml version="1.0" encoding="UTF-8" ?>
<!DOCTYPE svg PUBLIC "-//W3C//DTD SVG 1.1//EN" "http://www.w3.org/Graphics/SVG/1.1/DTD/svg11.dtd">
<svg width="468pt" height="60pt" viewBox="0 0 468 60" version="1.1" xmlns="http://www.w3.org/2000/svg">
<g id="#e31e24ff">
<path fill="#e31e24" opacity="1.00" d=" M 354.36 12.40 C 358.53 7.26 365.68 5.66 372.01 5.31 C 380.60 4.85 390.38 5.84 396.68 12.33 C 397.27 19.39 395.34 26.33 393.36 33.03 C 393.73 34.88 394.57 37.35 392.62 38.63 C 390.47 40.53 387.14 37.65 387.95 35.18 C 388.17 33.53 390.08 33.05 391.21 32.12 C 393.33 26.19 394.11 19.91 394.77 13.68 C 390.41 9.35 383.96 8.10 378.07 7.48 C 370.44 7.06 362.16 8.36 356.13 13.41 C 356.30 16.34 356.63 19.27 357.11 22.17 C 358.34 21.46 359.56 20.72 360.80 19.99 C 360.76 17.91 359.63 15.52 360.45 13.61 C 369.45 9.16 380.22 9.96 389.25 13.88 C 388.91 17.29 388.44 20.69 387.80 24.07 C 388.12 25.61 389.12 27.43 387.96 28.87 C 386.30 30.95 382.12 29.93 382.08 27.06 C 382.13 25.25 384.00 24.44 385.00 23.18 C 386.01 20.75 386.12 18.07 386.56 15.50 C 379.00 12.67 370.64 12.77 362.92 14.87 C 362.97 15.73 363.08 17.45 363.13 18.30 C 367.46 16.72 372.06 16.17 376.65 16.49 C 376.68 18.32 376.70 20.16 376.75 21.99 C 376.13 21.99 374.88 21.99 374.26 21.98 C 374.26 21.11 374.27 19.37 374.28 18.50 C 367.05 18.29 360.26 21.86 355.87 27.50 C 354.93 22.54 353.69 17.46 354.36 12.40 M 385.16 25.46 C 383.35 25.30 383.76 29.30 385.69 28.43 C 387.54 28.41 386.96 24.87 385.16 25.46 M 390.91 37.71 C 393.56 36.93 392.25 35.00 391.01 33.66 C 389.77 34.84 388.33 37.03 390.91 37.71 Z" />
<path fill="#e31e24" opacity="1.00" d=" M 14.45 15.42 C 20.26 9.93 28.93 10.28 36.34 10.99 C 36.35 13.30 36.35 15.61 36.37 17.92 C 31.25 17.36 24.39 15.99 20.86 20.84 C 18.47 25.21 18.76 32.59 24.13 34.61 C 28.09 35.87 32.34 35.63 36.37 34.91 C 36.35 37.18 36.33 39.45 36.29 41.72 C 30.20 42.84 23.53 43.03 17.86 40.19 C 9.14 35.60 8.68 22.53 14.45 15.42 Z" />
</g>
<g id="#1a1a1aff">
<path fill="#1a1a1a" opacity="1.00" d=" M 66.15 8.04 C 68.90 8.01 71.66 8.00 74.42 7.99 C 74.44 12.32 74.44 16.65 74.45 20.98 C 78.52 17.93 84.94 17.41 88.37 21.69 C 92.09 26.90 91.96 35.54 86.72 39.73 C 80.73 43.86 72.81 42.48 66.13 41.06 C 66.22 30.05 66.19 19.04 66.15 8.04 M 74.70 25.75 C 74.16 29.15 74.51 32.62 74.38 36.05 C 76.79 36.11 79.85 36.80 81.55 34.60 C 83.01 32.19 83.04 28.84 81.57 26.43 C 79.91 24.42 76.86 24.88 74.70 25.75 Z" />
<path fill="#1a1a1a" opacity="1.00" d=" M 275.49 8.44 C 278.33 7.33 283.22 8.14 283.05 12.01 C 283.08 16.59 276.11 17.44 273.75 14.23 C 272.57 12.31 273.15 9.17 275.49 8.44 Z" />
<path fill="#1a1a1a" opacity="1.00" d=" M 289.08 19.00 C 289.78 16.34 289.53 13.17 291.05 10.86 C 293.13 10.64 295.24 10.74 297.34 10.74 C 297.34 13.47 297.33 16.21 297.30 18.94 C 301.89 19.03 306.49 19.02 311.08 18.97 C 313.01 24.13 314.49 29.46 316.59 34.56 C 318.37 29.35 320.08 24.12 321.99 18.96 C 324.65 18.99 327.31 19.00 329.98 19.01 C 325.96 29.73 321.82 40.41 317.89 51.16 C 315.19 51.25 312.49 51.26 309.80 51.23 C 310.86 48.29 311.97 45.37 313.12 42.46 C 311.86 42.21 311.01 41.53 310.58 40.41 C 308.08 34.22 306.05 27.84 303.38 21.72 C 303.37 22.60 303.33 24.36 303.31 25.24 C 301.31 25.25 299.33 25.25 297.34 25.26 C 297.40 28.28 297.02 31.37 297.75 34.34 C 298.78 36.45 301.59 35.45 303.43 35.80 C 303.42 37.93 303.41 40.06 303.40 42.19 C 299.29 42.47 294.41 42.86 291.25 39.65 C 288.03 35.57 289.40 30.00 288.99 25.20 C 288.08 25.23 286.27 25.27 285.36 25.29 C 285.34 23.18 285.35 21.07 285.36 18.96 C 286.29 18.97 288.15 18.99 289.08 19.00 Z" />
<path fill="#1a1a1a" opacity="1.00" d=" M 262.05 21.85 C 264.14 19.18 267.38 18.33 270.64 18.43 C 270.75 20.87 270.80 23.32 270.86 25.76 C 268.30 25.95 265.44 25.64 263.27 27.28 C 262.69 32.16 263.17 37.09 263.02 41.99 C 260.27 42.00 257.52 42.00 254.78 42.00 C 254.75 34.32 254.76 26.65 254.78 18.97 C 257.06 19.00 259.35 19.03 261.64 19.09 C 261.74 19.78 261.95 21.16 262.05 21.85 Z" />
<path fill="#1a1a1a" opacity="1.00" d=" M 36.39 19.00 C 39.23 19.00 42.08 19.00 44.93 18.98 C 46.87 24.11 48.31 29.43 50.45 34.49 C 52.43 29.41 53.58 23.93 56.05 19.10 C 58.61 18.86 61.19 18.99 63.76 19.00 C 59.92 29.77 55.61 40.36 51.78 51.13 C 49.07 51.24 46.37 51.27 43.66 51.25 C 44.70 48.29 45.81 45.35 47.00 42.45 C 45.66 42.08 44.54 41.29 44.21 39.88 C 41.58 32.93 38.95 25.98 36.39 19.00 Z" />
<path fill="#1a1a1a" opacity="1.00" d=" M 100.58 19.59 C 105.21 17.63 111.51 18.05 114.78 22.27 C 117.10 25.21 117.11 29.12 117.45 32.67 C 112.36 32.83 107.26 32.67 102.17 32.83 C 102.97 34.00 103.39 35.85 105.12 35.93 C 108.66 36.79 112.32 36.30 115.89 35.86 C 115.87 37.85 115.86 39.84 115.83 41.83 C 109.97 42.45 103.30 43.49 98.14 39.93 C 92.24 34.70 92.94 22.92 100.58 19.59 M 102.20 28.21 C 104.74 28.25 107.28 28.26 109.83 28.24 C 109.27 26.29 108.80 23.14 106.04 23.53 C 103.29 23.18 102.83 26.29 102.20 28.21 Z" />
<path fill="#1a1a1a" opacity="1.00" d=" M 120.96 18.98 C 123.57 19.46 128.54 17.41 128.23 21.67 C 130.48 19.18 133.68 18.25 136.96 18.56 C 136.97 20.98 136.98 23.39 137.00 25.81 C 134.46 25.99 131.48 25.55 129.42 27.39 C 128.92 32.24 129.35 37.13 129.20 42.00 C 126.45 42.00 123.70 42.00 120.96 41.99 C 120.95 34.32 120.94 26.65 120.96 18.98 Z" />
<path fill="#1a1a1a" opacity="1.00" d=" M 184.35 19.29 C 188.64 17.84 194.08 18.15 197.34 21.64 C 200.13 24.59 200.18 28.87 200.54 32.68 C 195.43 32.83 190.33 32.67 185.23 32.83 C 187.38 38.28 194.49 36.07 198.98 35.83 C 198.95 37.84 198.93 39.84 198.90 41.85 C 193.23 42.44 186.95 43.37 181.78 40.34 C 175.00 35.28 175.94 22.23 184.35 19.29 M 185.32 28.22 C 187.83 28.26 190.35 28.27 192.87 28.26 C 192.44 26.24 191.80 23.09 189.01 23.54 C 186.31 23.24 185.91 26.32 185.32 28.22 Z" />
<path fill="#1a1a1a" opacity="1.00" d=" M 207.14 21.18 C 211.73 17.94 217.68 18.42 222.98 18.99 C 222.99 21.13 223.00 23.26 223.02 25.40 C 220.21 25.27 217.29 24.67 214.54 25.51 C 211.10 26.66 210.55 31.81 212.81 34.27 C 215.67 36.70 219.68 35.83 223.06 35.37 C 223.00 37.46 222.95 39.55 222.88 41.64 C 216.93 43.04 209.20 43.16 205.06 37.88 C 201.85 32.85 202.15 24.99 207.14 21.18 Z" />
<path fill="#1a1a1a" opacity="1.00" d=" M 226.52 18.98 C 229.28 18.99 232.05 19.01 234.81 19.06 C 234.91 23.99 234.34 28.99 235.11 33.88 C 236.59 36.43 239.68 35.11 241.63 33.95 C 241.49 28.96 241.54 23.97 241.59 18.98 C 244.34 18.99 247.09 19.01 249.84 19.03 C 249.80 26.68 249.80 34.32 249.84 41.97 C 247.62 41.99 245.41 42.00 243.20 42.02 C 242.99 41.46 242.57 40.35 242.35 39.79 C 237.85 43.85 229.15 43.18 227.12 36.89 C 225.89 31.02 226.72 24.94 226.52 18.98 Z" />
<path fill="#1a1a1a" opacity="1.00" d=" M 274.00 19.00 C 276.75 19.00 279.50 19.00 282.25 19.00 C 282.28 26.67 282.28 34.33 282.26 42.00 C 279.50 42.00 276.75 42.00 273.99 42.00 C 273.98 34.33 273.97 26.67 274.00 19.00 Z" />
<path fill="#1a1a1a" opacity="1.00" d=" M 373.29 25.72 C 373.75 24.76 374.58 23.38 375.76 23.37 C 376.51 24.01 377.39 24.71 377.69 25.70 C 377.02 26.35 376.36 27.01 375.71 27.66 C 374.82 27.13 374.09 26.36 373.29 25.72 Z" />
</g>
<g id="#3498dbff">
<path fill="#3498db" opacity="1.00" d=" M 153.95 12.79 C 159.58 9.81 166.23 10.46 172.33 11.16 C 172.37 13.37 172.42 15.58 172.46 17.79 C 168.48 17.24 164.35 16.53 160.39 17.56 C 158.80 17.82 157.54 19.86 158.66 21.24 C 162.80 23.35 167.79 23.55 171.57 26.44 C 175.51 30.08 174.54 37.28 170.00 40.01 C 164.25 43.79 157.03 42.37 150.74 41.04 C 150.73 38.78 150.73 36.53 150.72 34.27 C 155.10 35.50 159.86 36.54 164.31 35.07 C 166.32 34.49 166.20 31.46 164.29 30.79 C 160.81 29.41 156.73 29.58 153.58 27.34 C 148.51 24.27 148.74 15.64 153.95 12.79 Z" />
<path fill="#3498db" opacity="1.00" d=" M 372.04 27.77 C 370.29 25.82 371.50 21.99 374.26 21.98 C 374.88 21.99 376.13 21.99 376.75 21.99 C 379.40 22.01 380.42 25.94 378.84 27.78 C 377.08 30.02 378.29 32.78 378.66 35.27 C 375.59 35.49 376.09 40.86 379.04 40.73 C 382.61 40.94 386.20 40.73 389.78 40.85 C 386.68 46.99 381.69 52.09 375.85 55.68 C 367.36 51.89 361.84 43.34 358.28 35.00 C 355.33 34.26 353.48 29.95 356.99 28.56 C 360.60 26.99 362.69 31.48 360.57 34.11 C 362.70 39.75 366.02 44.92 370.25 49.22 C 371.52 48.30 372.79 47.35 374.01 46.35 C 370.20 43.70 368.30 39.03 364.13 36.86 C 361.67 35.45 363.25 31.23 366.04 31.51 C 369.03 31.28 369.77 34.60 369.11 36.88 C 371.34 40.58 374.34 43.77 377.86 46.26 C 376.14 47.95 374.34 49.55 372.55 51.16 C 373.75 51.66 375.00 53.61 376.39 52.47 C 380.06 50.09 383.18 46.89 385.57 43.22 C 382.23 42.95 378.04 44.33 375.51 41.43 C 373.66 39.67 375.23 36.10 372.35 35.20 C 372.69 32.71 374.04 29.91 372.04 27.77 M 373.29 25.72 C 374.09 26.36 374.82 27.13 375.71 27.66 C 376.36 27.01 377.02 26.35 377.69 25.70 C 377.39 24.71 376.51 24.01 375.76 23.37 C 374.58 23.38 373.75 24.76 373.29 25.72 M 357.96 29.91 C 355.91 30.29 356.71 33.44 358.68 32.84 C 360.53 32.47 359.78 29.33 357.96 29.91 M 365.31 33.36 C 363.68 34.18 365.10 37.02 366.89 36.17 C 368.48 35.05 367.27 32.07 365.31 33.36 Z" />
</g>
</svg>
