<?xml version="1.0" encoding="UTF-8" ?>
<!DOCTYPE svg PUBLIC "-//W3C//DTD SVG 1.1//EN" "http://www.w3.org/Graphics/SVG/1.1/DTD/svg11.dtd">
<svg width="468pt" height="60pt" viewBox="0 0 468 60" version="1.1" xmlns="http://www.w3.org/2000/svg">
<g id="#e31e24ff">
<path fill="#e31e24" opacity="1.00" d=" M 354.39 12.33 C 361.41 4.56 373.28 4.63 382.92 5.78 C 387.98 6.54 393.06 8.58 396.67 12.29 C 397.31 18.96 395.47 25.51 393.74 31.88 C 393.11 34.07 394.77 36.90 392.71 38.57 C 390.55 40.68 386.96 37.54 388.01 35.01 C 388.36 33.48 390.21 33.03 391.25 32.02 C 393.32 26.07 394.17 19.79 394.75 13.53 C 389.94 9.24 383.25 7.81 376.99 7.43 C 369.65 7.16 361.85 8.64 356.08 13.44 C 356.33 16.40 356.69 19.35 357.11 22.29 C 358.34 21.51 359.56 20.71 360.79 19.91 C 360.53 17.91 360.20 15.90 360.07 13.88 C 369.07 9.02 380.07 10.02 389.26 13.82 C 388.88 17.24 388.43 20.64 387.86 24.03 C 388.05 25.43 388.78 26.88 388.33 28.30 C 387.26 30.70 383.08 30.45 382.31 27.96 C 381.56 26.71 382.54 25.57 383.42 24.79 C 386.04 22.59 386.66 18.40 386.02 15.36 C 378.64 12.53 370.43 12.92 362.89 14.87 C 362.95 15.72 363.07 17.43 363.13 18.28 C 367.47 16.73 372.07 16.18 376.66 16.48 C 376.68 18.32 376.71 20.15 376.74 21.98 C 376.12 21.98 374.88 21.99 374.26 21.99 C 374.26 21.10 374.27 19.33 374.27 18.45 C 367.05 18.37 360.22 21.82 355.86 27.53 C 354.96 22.53 353.64 17.42 354.39 12.33 M 385.26 25.49 C 383.12 25.20 383.78 29.28 385.67 28.42 C 387.50 28.32 387.05 24.98 385.26 25.49 M 390.19 34.38 C 389.12 35.61 388.98 37.11 390.84 37.67 C 393.73 37.47 392.52 33.51 390.19 34.38 Z" />
<path fill="#e31e24" opacity="1.00" d=" M 14.46 15.41 C 20.27 9.91 28.94 10.30 36.34 10.98 C 36.35 13.29 36.35 15.60 36.37 17.91 C 31.23 17.38 24.34 15.98 20.82 20.89 C 18.64 25.08 18.67 31.92 23.48 34.32 C 27.56 36.00 32.12 35.56 36.39 34.97 C 36.38 36.70 36.40 38.44 36.32 40.17 C 36.78 42.20 34.13 41.91 32.93 42.26 C 25.74 43.05 16.74 42.14 12.68 35.27 C 9.59 29.07 9.96 20.85 14.46 15.41 Z" />
</g>
<g id="#ffffffff">
<path fill="#ffffff" opacity="1.00" d=" M 66.17 8.00 C 68.93 8.00 71.68 8.00 74.44 8.00 C 74.42 12.34 74.49 16.68 74.38 21.01 C 78.45 17.94 84.86 17.40 88.35 21.65 C 91.78 26.38 91.81 33.59 88.29 38.31 C 82.59 44.23 73.41 42.47 66.20 41.16 C 66.14 30.11 66.19 19.05 66.17 8.00 M 74.70 25.84 C 74.09 29.26 74.57 32.80 74.47 36.26 C 76.83 36.04 79.81 36.76 81.52 34.66 C 83.02 32.21 83.05 28.81 81.53 26.36 C 79.85 24.48 76.75 24.76 74.70 25.84 Z" />
<path fill="#ffffff" opacity="1.00" d=" M 275.40 8.47 C 277.28 7.85 279.49 7.79 281.29 8.72 C 283.73 10.04 283.66 14.19 281.12 15.37 C 278.95 16.62 276.15 16.31 274.20 14.81 C 272.47 13.00 272.89 9.36 275.40 8.47 Z" />
<path fill="#ffffff" opacity="1.00" d=" M 289.07 18.98 C 289.58 16.24 290.08 13.50 290.58 10.76 C 292.83 10.75 295.08 10.75 297.34 10.75 C 297.34 13.50 297.33 16.25 297.35 19.01 C 301.94 18.99 306.54 19.01 311.15 19.00 C 312.93 24.26 314.71 29.52 316.49 34.78 C 318.29 29.52 320.11 24.26 321.91 19.00 C 324.60 18.99 327.29 19.01 329.98 19.00 C 325.92 29.75 321.86 40.50 317.79 51.25 C 315.11 51.24 312.42 51.26 309.74 51.25 C 310.86 48.30 311.96 45.34 313.17 42.43 C 312.67 42.24 311.66 41.87 311.16 41.68 C 308.31 34.81 305.79 27.79 303.28 20.79 C 303.31 22.27 303.35 23.76 303.39 25.25 C 301.37 25.25 299.36 25.25 297.34 25.25 C 297.45 28.26 296.99 31.35 297.73 34.30 C 298.75 36.53 301.55 35.47 303.46 35.75 C 303.43 37.88 303.42 40.01 303.42 42.14 C 299.29 42.57 294.48 42.80 291.24 39.71 C 288.06 35.59 289.33 30.05 289.07 25.25 C 287.82 25.25 286.57 25.25 285.32 25.25 C 285.32 23.17 285.32 21.09 285.31 19.01 C 286.56 19.02 287.81 19.01 289.07 18.98 Z" />
<path fill="#ffffff" opacity="1.00" d=" M 262.01 21.92 C 264.07 19.16 267.40 18.21 270.72 18.52 C 270.75 20.94 270.82 23.37 270.87 25.79 C 268.31 25.86 265.52 25.70 263.30 27.19 C 262.67 32.09 263.19 37.07 263.03 42.00 C 260.27 42.00 257.52 42.00 254.77 42.00 C 254.76 34.33 254.76 26.66 254.76 18.99 C 257.03 18.96 259.31 19.03 261.58 19.03 C 261.69 19.75 261.91 21.19 262.01 21.92 Z" />
<path fill="#ffffff" opacity="1.00" d=" M 36.35 19.00 C 39.23 19.00 42.10 19.00 44.98 19.00 C 46.80 24.25 48.54 29.52 50.36 34.77 C 52.11 29.49 53.99 24.26 55.75 18.99 C 58.44 19.02 61.13 19.01 63.82 18.96 C 59.80 29.74 55.71 40.49 51.65 51.25 C 48.96 51.24 46.28 51.26 43.60 51.25 C 44.72 48.29 45.79 45.32 47.06 42.42 C 44.39 42.27 44.15 39.45 43.30 37.51 C 41.00 31.33 38.67 25.17 36.35 19.00 Z" />
<path fill="#ffffff" opacity="1.00" d=" M 98.65 40.32 C 92.01 35.27 92.82 22.47 101.04 19.39 C 105.42 17.79 111.07 18.11 114.37 21.76 C 117.06 24.74 117.18 28.95 117.39 32.74 C 112.28 32.79 107.16 32.68 102.04 32.83 C 102.62 33.84 103.30 34.79 104.06 35.67 C 107.92 36.81 111.97 36.44 115.88 35.80 C 115.87 37.80 115.87 39.79 115.85 41.79 C 110.16 42.50 103.84 43.35 98.65 40.32 M 102.13 28.20 C 104.74 28.26 107.35 28.25 109.96 28.20 C 109.30 26.30 108.73 23.12 106.00 23.54 C 103.24 23.16 102.87 26.33 102.13 28.20 Z" />
<path fill="#ffffff" opacity="1.00" d=" M 120.95 18.99 C 123.22 18.99 125.50 19.01 127.77 19.03 C 127.85 19.74 128.02 21.16 128.11 21.87 C 130.29 19.24 133.55 18.19 136.91 18.55 C 136.98 20.98 136.98 23.40 137.01 25.83 C 134.45 25.86 131.60 25.67 129.43 27.27 C 128.94 32.16 129.34 37.09 129.22 42.00 C 126.46 42.00 123.70 42.00 120.95 42.00 C 120.95 34.33 120.95 26.66 120.95 18.99 Z" />
<path fill="#ffffff" opacity="1.00" d=" M 181.58 40.22 C 175.14 35.08 175.95 22.49 184.09 19.40 C 188.62 17.71 194.61 18.16 197.80 22.19 C 200.18 25.15 200.24 29.13 200.48 32.73 C 195.36 32.80 190.24 32.68 185.12 32.82 C 187.33 38.25 194.44 36.14 198.97 35.79 C 198.96 37.79 198.94 39.79 198.92 41.80 C 193.19 42.50 186.77 43.38 181.58 40.22 M 185.21 28.21 C 187.82 28.26 190.43 28.25 193.04 28.20 C 192.41 26.28 191.80 23.11 189.07 23.54 C 186.31 23.17 185.94 26.32 185.21 28.21 Z" />
<path fill="#ffffff" opacity="1.00" d=" M 206.61 21.57 C 211.21 17.93 217.49 18.37 222.97 18.99 C 222.98 21.15 222.98 23.31 223.00 25.47 C 219.77 25.28 216.11 24.27 213.21 26.21 C 211.06 28.17 210.85 32.10 212.80 34.26 C 215.65 36.65 219.65 35.97 223.00 35.26 C 222.98 37.34 222.97 39.42 222.98 41.50 C 216.90 43.26 208.67 43.11 204.72 37.39 C 202.06 32.48 202.26 25.47 206.61 21.57 Z" />
<path fill="#ffffff" opacity="1.00" d=" M 226.50 19.00 C 229.25 18.99 232.01 19.01 234.77 19.00 C 234.94 23.93 234.37 28.92 235.08 33.81 C 236.47 36.38 239.47 35.10 241.52 34.21 C 241.57 29.14 241.54 24.07 241.55 19.00 C 244.30 19.00 247.06 19.00 249.82 19.00 C 249.82 26.67 249.82 34.33 249.82 42.00 C 247.65 42.00 245.48 42.00 243.32 42.00 C 243.07 41.47 242.57 40.40 242.32 39.87 C 239.80 41.27 237.08 43.10 234.05 42.26 C 230.25 41.94 226.87 38.84 226.69 34.93 C 226.27 29.63 226.60 24.31 226.50 19.00 Z" />
<path fill="#ffffff" opacity="1.00" d=" M 273.98 19.00 C 276.74 19.00 279.51 19.00 282.27 19.00 C 282.27 26.67 282.27 34.33 282.27 42.00 C 279.51 42.00 276.74 42.00 273.98 42.00 C 273.98 34.33 273.98 26.67 273.98 19.00 Z" />
<path fill="#ffffff" opacity="1.00" d=" M 375.26 23.34 C 376.17 23.84 376.87 24.64 377.70 25.28 C 377.03 26.20 376.20 27.04 375.28 27.70 C 374.63 26.88 373.84 26.17 373.34 25.26 C 373.98 24.62 374.62 23.98 375.26 23.34 Z" />
</g>
<g id="#3498dbff">
<path fill="#3498db" opacity="1.00" d=" M 154.02 12.75 C 159.65 9.81 166.29 10.45 172.37 11.18 C 172.39 13.38 172.41 15.58 172.45 17.78 C 168.47 17.25 164.34 16.53 160.39 17.56 C 158.76 17.87 157.65 19.75 158.59 21.23 C 162.78 23.30 167.76 23.57 171.58 26.44 C 175.50 30.08 174.54 37.25 170.02 40.00 C 164.26 43.79 157.04 42.36 150.74 41.05 C 150.72 38.78 150.74 36.51 150.73 34.25 C 155.42 35.52 160.96 36.97 165.45 34.40 C 165.71 33.32 166.19 31.84 164.90 31.24 C 161.44 29.19 156.88 29.81 153.57 27.33 C 148.48 24.24 148.74 15.55 154.02 12.75 Z" />
<path fill="#3498db" opacity="1.00" d=" M 372.03 27.63 C 370.28 25.70 371.57 21.99 374.26 21.99 C 374.88 21.99 376.12 21.98 376.74 21.98 C 380.70 22.50 379.82 27.64 377.72 29.84 C 378.01 31.59 378.31 33.33 378.61 35.08 C 375.80 35.81 375.99 40.76 379.00 40.71 C 382.63 40.95 386.28 40.74 389.92 40.85 C 386.37 46.84 381.65 52.94 375.13 55.65 C 367.20 51.11 361.75 43.31 358.24 35.03 C 356.89 33.95 354.70 33.20 355.04 31.08 C 355.15 27.99 359.82 27.33 361.20 29.89 C 361.86 31.34 360.86 32.80 360.61 34.21 C 362.83 39.65 365.76 45.02 370.21 48.95 C 371.67 48.49 372.76 47.28 374.01 46.43 C 370.24 43.34 367.82 38.86 363.58 36.33 C 361.21 33.75 365.27 29.98 367.93 32.03 C 369.75 33.01 369.16 35.30 369.16 36.97 C 371.41 40.66 374.45 43.76 377.86 46.40 C 376.33 48.14 373.50 49.21 373.13 51.69 C 373.66 52.00 374.72 52.63 375.25 52.94 C 379.67 50.96 382.77 47.02 385.66 43.27 C 382.49 42.91 378.70 44.20 376.03 41.94 C 373.88 40.16 374.88 36.66 372.47 35.03 C 372.77 32.54 373.74 29.84 372.03 27.63 M 375.26 23.34 C 374.62 23.98 373.98 24.62 373.34 25.26 C 373.84 26.17 374.63 26.88 375.28 27.70 C 376.20 27.04 377.03 26.20 377.70 25.28 C 376.87 24.64 376.17 23.84 375.26 23.34 M 357.93 29.92 C 355.92 30.34 356.76 33.47 358.69 32.85 C 360.57 32.44 359.77 29.32 357.93 29.92 M 365.14 33.19 C 364.51 34.51 364.44 35.84 366.05 36.49 C 368.54 35.73 367.87 32.22 365.14 33.19 Z" />
</g>
</svg>
